# xmcd
#
# Track frame offsets:
# 150
# 27423
# 48191
# 69847
# 82449
# 101317
# 124922
# 134395
# 145756
# 164338
# 179576
# 203110
#
# Disc length: 4132 seconds
#
#
# Revision: 0
# Processed by: cddbd v1.5.2PL0 Copyright (c) Steve Scherf et al.
# Submitted via: FreeRIP 2.96 
#
DISCID=aa10220c
DTITLE=Noir Désir - Des Visages Des Figures
DYEAR=2001
DGENRE=Rock
TTITLE0=L'Enfant Roi
TTITLE1=Le Grand Incendie
TTITLE2=Le Vent Nous Portera
TTITLE3=Des Armes
TTITLE4=L'Appartement
TTITLE5=Des Visages Des Figures
TTITLE6=Son Style 1
TTITLE7=Son Style 2
TTITLE8=À L'Envers À L'Endroit
TTITLE9=Lost
TTITLE10=Bouquet De Nerfs
TTITLE11=L'Europe
EXTD=
EXTT0=
EXTT1=
EXTT2=
EXTT3=
EXTT4=
EXTT5=
EXTT6=
EXTT7=
EXTT8=
EXTT9=
EXTT10=
EXTT11=
PLAYORDER=
